<svg data-v-423bf9ae="" xmlns="http://www.w3.org/2000/svg" viewBox="0 0 550 90" class="iconLeft"><!----><!----><!----><g data-v-423bf9ae="" id="f94d4241-a6a4-477c-ac41-0c57f01a8616" fill="white" transform="matrix(4.773269805623416,0,0,4.773269805623416,107.61337323456857,-1.7064443196819568)"><path d="M5.21 9.18L5.21 9.18Q6.31 9.37 6.86 9.93L6.86 9.93L6.86 9.93Q7.41 10.50 7.41 11.35L7.41 11.35L7.41 11.35Q7.41 12.45 6.56 13.08L6.56 13.08L6.56 13.08Q5.71 13.72 4.12 13.72L4.12 13.72L0.52 13.72L0.52 13.15L1.72 12.84L1.72 6.02L0.50 5.71L0.50 5.14L4.17 5.14L4.17 5.14Q5.73 5.14 6.44 5.69L6.44 5.69L6.44 5.69Q7.15 6.24 7.15 7.21L7.15 7.21L7.15 7.21Q7.15 8.01 6.63 8.52L6.63 8.52L6.63 8.52Q6.10 9.03 5.21 9.18L5.21 9.18ZM3.85 8.93L3.85 8.93Q4.58 8.93 5.04 8.55L5.04 8.55L5.04 8.55Q5.50 8.18 5.50 7.29L5.50 7.29L5.50 7.29Q5.50 6.59 5.12 6.25L5.12 6.25L5.12 6.25Q4.75 5.91 4.10 5.91L4.10 5.91L4.10 5.91Q3.84 5.91 3.62 5.96L3.62 5.96L3.62 5.96Q3.40 6.01 3.36 6.01L3.36 6.01L3.36 8.93L3.85 8.93ZM3.36 12.85L3.36 12.85Q3.65 12.95 4.10 12.95L4.10 12.95L4.10 12.95Q4.82 12.95 5.26 12.54L5.26 12.54L5.26 12.54Q5.70 12.12 5.70 11.27L5.70 11.27L5.70 11.27Q5.70 10.46 5.19 10.04L5.19 10.04L5.19 10.04Q4.68 9.63 3.81 9.63L3.81 9.63L3.36 9.63L3.36 12.85ZM12.40 7.78L12.40 7.78Q11.79 7.78 11.28 8.02L11.28 8.02L11.28 12.82L12.89 13.12L12.89 13.72L8.50 13.72L8.50 13.13L9.65 12.82L9.65 7.95L8.50 7.78L8.50 7.24L10.68 6.71L11.27 6.71L11.27 7.35L11.27 7.35Q11.75 7.04 12.32 6.85L12.32 6.85L12.32 6.85Q12.89 6.66 13.38 6.66L13.38 6.66L13.38 6.66Q13.68 6.66 13.78 6.68L13.78 6.68L13.52 9.02L12.70 9.02L12.40 7.78ZM17.22 7.66L17.22 7.66Q16.63 7.66 16.09 7.84L16.09 7.84L15.76 9.02L15.08 9.02L14.84 7.22L14.84 7.22Q16.20 6.71 17.65 6.71L17.65 6.71L17.65 6.71Q18.75 6.71 19.31 7.07L19.31 7.07L19.31 7.07Q19.87 7.43 19.87 8.37L19.87 8.37L19.87 12.68L21.01 13.02L21.01 13.55L21.01 13.55Q20.12 13.79 19.50 13.79L19.50 13.79L19.50 13.79Q19.07 13.79 18.72 13.59L18.72 13.59L18.72 13.59Q18.37 13.40 18.27 13.03L18.27 13.03L18.27 13.03Q17.70 13.44 17.18 13.65L17.18 13.65L17.18 13.65Q16.66 13.86 16.07 13.86L16.07 13.86L16.07 13.86Q15.33 13.86 14.90 13.38L14.90 13.38L14.90 13.38Q14.48 12.89 14.48 12.14L14.48 12.14L14.48 12.14Q14.48 11.47 14.88 10.90L14.88 10.90L14.88 10.90Q15.27 10.33 16.27 10.14L16.27 10.14L18.23 9.76L18.23 8.71L18.23 8.71Q18.23 8.15 18.00 7.90L18.00 7.90L18.00 7.90Q17.78 7.66 17.22 7.66L17.22 7.66ZM17.18 10.72L17.18 10.72Q16.60 10.85 16.36 11.16L16.36 11.16L16.36 11.16Q16.11 11.47 16.11 11.94L16.11 11.94L16.11 11.94Q16.11 12.82 16.94 12.82L16.94 12.82L16.94 12.82Q17.23 12.82 17.60 12.69L17.60 12.69L17.60 12.69Q17.96 12.56 18.23 12.39L18.23 12.39L18.23 10.50L17.18 10.72ZM24.33 7.27L24.33 7.27Q24.72 7.08 25.47 6.90L25.47 6.90L25.47 6.90Q26.21 6.71 26.81 6.71L26.81 6.71L26.81 6.71Q27.59 6.71 28.09 7.06L28.09 7.06L28.09 7.06Q28.59 7.41 28.59 8.18L28.59 8.18L28.59 12.82L29.75 13.17L29.75 13.72L26.00 13.72L26.00 13.17L26.95 12.82L26.95 8.58L26.95 8.58Q26.95 8.22 26.86 8.04L26.86 8.04L26.86 8.04Q26.77 7.85 26.53 7.79L26.53 7.79L26.53 7.79Q26.29 7.73 25.83 7.73L25.83 7.73L25.83 7.73Q25.05 7.73 24.33 7.92L24.33 7.92L24.33 12.82L25.28 13.17L25.28 13.72L21.55 13.72L21.55 13.17L22.69 12.82L22.69 7.92L21.55 7.78L21.55 7.22L23.80 6.71L24.33 6.71L24.33 7.27ZM35.03 13.06L35.03 13.06Q33.94 13.86 32.76 13.86L32.76 13.86L32.76 13.86Q31.99 13.86 31.46 13.37L31.46 13.37L31.46 13.37Q30.93 12.88 30.66 12.08L30.66 12.08L30.66 12.08Q30.39 11.27 30.39 10.30L30.39 10.30L30.39 10.30Q30.39 8.62 31.19 7.67L31.19 7.67L31.19 7.67Q31.99 6.71 33.43 6.71L33.43 6.71L33.43 6.71Q33.80 6.71 34.14 6.78L34.14 6.78L34.14 6.78Q34.48 6.85 34.72 6.94L34.72 6.94L34.72 6.94Q34.96 7.03 34.99 7.06L34.99 7.06L34.99 4.75L33.82 4.59L33.82 4.05L36.08 3.50L36.62 3.50L36.62 12.68L37.76 13.02L37.76 13.55L37.76 13.55Q36.90 13.79 36.23 13.79L36.23 13.79L36.23 13.79Q35.81 13.79 35.46 13.59L35.46 13.59L35.46 13.59Q35.11 13.40 35.03 13.06L35.03 13.06ZM33.56 12.84L33.56 12.84Q33.96 12.84 34.36 12.68L34.36 12.68L34.36 12.68Q34.76 12.53 34.99 12.33L34.99 12.33L34.99 7.94L34.99 7.94Q34.75 7.76 34.41 7.65L34.41 7.65L34.41 7.65Q34.06 7.55 33.73 7.55L33.73 7.55L33.73 7.55Q32.96 7.55 32.56 8.27L32.56 8.27L32.56 8.27Q32.16 9.00 32.16 10.28L32.16 10.28L32.16 10.28Q32.16 11.47 32.50 12.15L32.50 12.15L32.50 12.15Q32.84 12.84 33.56 12.84L33.56 12.84ZM41.64 6.71L41.64 6.71Q43.40 6.71 44.23 7.69L44.23 7.69L44.23 7.69Q45.05 8.68 45.05 10.30L45.05 10.30L45.05 10.30Q45.05 11.89 44.21 12.87L44.21 12.87L44.21 12.87Q43.37 13.86 41.64 13.86L41.64 13.86L41.64 13.86Q39.94 13.86 39.11 12.87L39.11 12.87L39.11 12.87Q38.28 11.87 38.28 10.30L38.28 10.30L38.28 10.30Q38.28 8.68 39.09 7.69L39.09 7.69L39.09 7.69Q39.91 6.71 41.64 6.71L41.64 6.71ZM43.27 10.28L43.27 10.28Q43.27 8.97 42.91 8.26L42.91 8.26L42.91 8.26Q42.55 7.55 41.61 7.55L41.61 7.55L41.61 7.55Q40.73 7.55 40.38 8.26L40.38 8.26L40.38 8.26Q40.04 8.97 40.04 10.28L40.04 10.28L40.04 10.28Q40.04 11.56 40.40 12.29L40.40 12.29L40.40 12.29Q40.77 13.01 41.69 13.01L41.69 13.01L41.69 13.01Q42.60 13.01 42.94 12.29L42.94 12.29L42.94 12.29Q43.27 11.58 43.27 10.28L43.27 10.28ZM48.64 7.27L48.64 7.27Q49.03 7.08 49.77 6.90L49.77 6.90L49.77 6.90Q50.51 6.71 51.11 6.71L51.11 6.71L51.11 6.71Q51.90 6.71 52.40 7.06L52.40 7.06L52.40 7.06Q52.89 7.41 52.89 8.18L52.89 8.18L52.89 12.82L54.05 13.17L54.05 13.72L50.30 13.72L50.30 13.17L51.25 12.82L51.25 8.58L51.25 8.58Q51.25 8.22 51.16 8.04L51.16 8.04L51.16 8.04Q51.07 7.85 50.83 7.79L50.83 7.79L50.83 7.79Q50.60 7.73 50.13 7.73L50.13 7.73L50.13 7.73Q49.35 7.73 48.64 7.92L48.64 7.92L48.64 12.82L49.59 13.17L49.59 13.72L45.85 13.72L45.85 13.17L47.00 12.82L47.00 7.92L45.85 7.78L45.85 7.22L48.10 6.71L48.64 6.71L48.64 7.27ZM60.34 13.15L60.34 13.72L57.08 13.72L57.08 13.15L58.24 12.84L58.49 6.01L57.33 5.71L57.33 5.14L60.13 5.14L62.40 11.79L64.61 5.14L67.51 5.14L67.51 5.71L66.30 6.02L66.58 12.84L67.80 13.15L67.80 13.72L63.83 13.72L63.83 13.15L65.03 12.84L64.82 7.28L62.61 13.72L61.68 13.86L59.33 7.29L59.14 12.84L60.34 13.15ZM71.79 13.86L71.79 13.86Q70.06 13.86 69.29 12.91L69.29 12.91L69.29 12.91Q68.52 11.96 68.52 10.30L68.52 10.30L68.52 10.30Q68.52 8.44 69.36 7.57L69.36 7.57L69.36 7.57Q70.21 6.71 71.65 6.71L71.65 6.71L71.65 6.71Q73.08 6.71 73.74 7.35L73.74 7.35L73.74 7.35Q74.40 7.99 74.40 9.37L74.40 9.37L74.40 9.37Q74.40 9.84 74.35 10.22L74.35 10.22L70.28 10.22L70.28 10.60L70.28 10.60Q70.28 11.82 70.78 12.37L70.78 12.37L70.78 12.37Q71.27 12.92 72.23 12.92L72.23 12.92L72.23 12.92Q73.07 12.92 74.21 12.60L74.21 12.60L74.33 13.15L74.33 13.15Q73.26 13.86 71.79 13.86L71.79 13.86ZM70.31 9.55L72.72 9.41L72.72 9.10L72.72 9.10Q72.72 8.34 72.50 7.96L72.50 7.96L72.50 7.96Q72.28 7.57 71.72 7.57L71.72 7.57L71.72 7.57Q70.95 7.57 70.65 8.04L70.65 8.04L70.65 8.04Q70.35 8.51 70.31 9.55L70.31 9.55ZM79.06 7.78L79.06 7.78Q78.44 7.78 77.94 8.02L77.94 8.02L77.94 12.82L79.55 13.12L79.55 13.72L75.15 13.72L75.15 13.13L76.30 12.82L76.30 7.95L75.15 7.78L75.15 7.24L77.34 6.71L77.92 6.71L77.92 7.35L77.92 7.35Q78.40 7.04 78.97 6.85L78.97 6.85L78.97 6.85Q79.55 6.66 80.04 6.66L80.04 6.66L80.04 6.66Q80.33 6.66 80.43 6.68L80.43 6.68L80.18 9.02L79.35 9.02L79.06 7.78ZM84.90 7.78L84.90 7.78Q84.28 7.78 83.78 8.02L83.78 8.02L83.78 12.82L85.39 13.12L85.39 13.72L80.99 13.72L80.99 13.13L82.14 12.82L82.14 7.95L80.99 7.78L80.99 7.24L83.17 6.71L83.76 6.71L83.76 7.35L83.76 7.35Q84.24 7.04 84.81 6.85L84.81 6.85L84.81 6.85Q85.39 6.66 85.88 6.66L85.88 6.66L85.88 6.66Q86.17 6.66 86.27 6.68L86.27 6.68L86.02 9.02L85.19 9.02L84.90 7.78ZM89.54 6.83L89.54 7.35L88.84 7.69L90.30 11.54L91.57 7.71L90.62 7.48L90.62 6.83L93.55 6.83L93.55 7.45L92.67 7.71L90.66 13.24L90.66 13.24Q90.16 14.67 89.57 15.37L89.57 15.37L89.57 15.37Q88.98 16.07 88.10 16.07L88.10 16.07L88.10 16.07Q87.47 16.07 86.65 15.69L86.65 15.69L86.74 15.12L87.54 15.12L87.54 15.12Q88.24 15.12 88.68 14.69L88.68 14.69L88.68 14.69Q89.11 14.25 89.47 13.38L89.47 13.38L87.09 7.69L86.35 7.35L86.35 6.83L89.54 6.83Z"></path></g><!----><g data-v-423bf9ae="" id="12e4d136-b8d9-4056-a510-66386ca04e41" transform="matrix(2.8125,0,0,2.8125,0,1.0290013551712036)" stroke="none" fill="white"><path d="M0 31.984h32v-32H0v32zm2-30h28v28H2v-28z"></path><path d="M6.439 16.831h8.959l-4.48-7.741zM16.602 13.331h8.959L21.082 5.59zM6.439 26.41h8.959l-4.48-7.741zM16.602 22.91h8.959l-4.479-7.741z"></path></g><!----></svg>